<?xml version="1.0" encoding="utf-8"?>
<!-- Generator: Adobe Illustrator 22.0.1, SVG Export Plug-In . SVG Version: 6.00 Build 0)  -->
<svg version="1.1" id="Layer_1" xmlns="http://www.w3.org/2000/svg" xmlns:xlink="http://www.w3.org/1999/xlink" x="0px" y="0px"
	 viewBox="0 0 600 600" style="enable-background:new 0 0 600 600;" xml:space="preserve">
<style type="text/css">
	.st0{fill:#FFFFFF;}
	.st1{fill:#61DAFB;}
</style>
<rect class="st0" width="600" height="600"/>
<g>
	<path class="st1" d="M10.3,299.9c0,38.4,48.1,74.8,121.8,97.3c-17,75.1-9.4,134.9,23.9,154c7.7,4.5,16.7,6.6,26.5,6.6v-26.3
		c-5.4,0-9.8-1.1-13.5-3.1c-16.1-9.2-23-44.3-17.6-89.4c1.3-11.1,3.4-22.8,6-34.7c23.1,5.7,48.4,10,75,12.9
		c15.9,21.8,32.5,41.7,49.1,59.1c-38.5,35.8-74.6,55.4-99.2,55.4V558c32.5,0,75-23.1,118-63.3c43,39.9,85.5,62.8,118,62.8v-26.3
		c-24.4,0-60.7-19.5-99.2-55c16.5-17.4,33.1-37.1,48.8-58.9c26.7-2.8,52-7.2,75.1-13c2.7,11.8,4.7,23.3,6.1,34.2
		c5.6,45.1-1.3,80.2-17.2,89.5c-3.5,2.1-8.1,3.1-13.6,3.1v26.3c9.9,0,18.9-2.1,26.7-6.6c33.2-19.1,40.6-78.8,23.5-153.7
		c73.5-22.7,121.3-58.9,121.3-97.2c0-38.4-48.1-74.8-121.8-97.3c17-75.1,9.4-134.9-23.9-154c-7.7-4.5-16.7-6.6-26.6-6.6
		c-32.5,0-75,23.1-118,63.3c-43-39.9-85.5-62.8-118-62.8c-9.9,0-18.9,2.1-26.7,6.6c-33.2,19.1-40.6,78.8-23.5,153.7
		C58.1,225.3,10.3,261.7,10.3,299.9L10.3,299.9z M164.1,378.7c4.4-15.2,9.8-30.9,15.9-46.7c4.8,9.4,9.9,18.9,15.5,28.3
		c5.4,9.4,11.2,18.7,17,27.6C195.7,385.6,179.5,382.5,164.1,378.7L164.1,378.7z M218.2,252.9c9.2-15.9,18.7-31.1,28.5-45.1
		c17.6-1.5,35.4-2.4,53.4-2.4c17.8,0,35.7,0.8,53.1,2.2c9.8,14.1,19.4,29.1,28.6,44.9c9,15.5,17.1,31.2,24.6,47
		c-7.3,15.8-15.6,31.7-24.4,47.1c-9.2,15.9-18.7,31.1-28.5,45.1c-17.6,1.5-35.4,2.4-53.4,2.4c-17.8,0-35.7-0.8-53.1-2.2
		c-9.8-14.1-19.4-29.1-28.6-44.9c-9-15.5-17.1-31.2-24.6-47C201.1,284.2,209.3,268.4,218.2,252.9L218.2,252.9z M180,268.3
		c-6.4-15.8-11.8-31.7-16.3-47c15.5-3.8,31.8-7,48.7-9.4c-5.8,9.1-11.6,18.4-17,28C189.9,249.3,184.9,258.8,180,268.3L180,268.3z
		 M299.8,142.3c11,11.3,22,24,32.8,37.8c-10.6-0.5-21.5-0.8-32.5-0.8c-11.1,0-22.1,0.2-32.8,0.8
		C277.9,166.2,288.9,153.6,299.8,142.3z M387.6,211.8c16.8,2.5,33,5.6,48.4,9.3c-4.4,15.2-9.8,30.9-15.9,46.7
		c-4.8-9.4-9.9-18.9-15.5-28.3S393.4,220.8,387.6,211.8z M300.4,457.6c-11-11.3-22-24-32.8-37.8c10.6,0.5,21.5,0.8,32.5,0.8
		c11.1,0,22.1-0.2,32.8-0.8C322.2,433.6,311.2,446.3,300.4,457.6z M387.8,388c5.8-9.1,11.6-18.4,17-28c5.4-9.4,10.5-18.9,15.4-28.3
		c6.4,15.8,11.8,31.7,16.3,47C420.9,382.4,404.6,385.6,387.8,388L387.8,388z M494.6,240.2c41.8,17.8,68.9,41.2,68.9,59.8
		c0,18.5-27,42-68.9,59.8c-10.2,4.4-21.3,8.3-32.7,11.9c-6.7-23.1-15.6-47.2-26.6-71.9c10.9-24.6,19.6-48.5,26.2-71.6
		C473.3,231.8,484.4,235.8,494.6,240.2L494.6,240.2z M431.1,71.4c16.1,9.2,23,44.3,17.6,89.4c-1.3,11.1-3.4,22.8-6,34.7
		c-23.1-5.7-48.4-10-75-12.9c-15.9-21.8-32.5-41.7-49.1-59.1c38.5-35.8,74.6-55.4,99.2-55.4C423.1,68.3,427.6,69.4,431.1,71.4
		L431.1,71.4z M151,161.4c-5.6-45.1,1.3-80.2,17.2-89.5c3.5-2.1,8.1-3.1,13.6-3.1c24.4,0,60.7,19.5,99.2,55
		c-16.5,17.4-33.1,37.1-48.8,58.9c-26.7,2.8-52,7.2-75.1,13C154.4,183.8,152.3,172.4,151,161.4z M105.5,240.2
		c10.2-4.4,21.3-8.3,32.7-11.9c6.7,23.1,15.6,47.2,26.6,71.9c-10.9,24.6-19.6,48.5-26.2,71.6c-11.7-3.7-22.8-7.7-33.2-12
		c-41.8-17.8-68.9-41.2-68.9-59.8C36.6,281.4,63.7,257.9,105.5,240.2L105.5,240.2z"/>
	<circle class="st1" cx="300.1" cy="299.9" r="54"/>
	<path class="st1" d="M182.5,557.9"/>
</g>
</svg>
